<?xml version="1.0" encoding="UTF-8"?>
<svg id="_图层_1" data-name="图层 1" xmlns="http://www.w3.org/2000/svg" viewBox="0 0 841.89 595.28">
  <defs>
    <style>
      .cls-1 {
        fill: #cf000d;
      }

      .cls-2 {
        fill: #fff;
      }
    </style>
  </defs>
  <g>
    <circle class="cls-1" cx="56.66" cy="69.87" r="7.88"/>
    <path class="cls-1" d="M86.86,78.61c4.82,0,8.74-3.91,8.74-8.74s-3.91-8.73-8.74-8.73-8.74,3.91-8.74,8.73,3.91,8.74,8.74,8.74Z"/>
    <path class="cls-1" d="M107.48,69.87c0,5.3,4.29,9.59,9.59,9.59s9.59-4.29,9.59-9.59-4.29-9.59-9.59-9.59-9.59,4.29-9.59,9.59Z"/>
    <circle class="cls-1" cx="147.27" cy="69.87" r="10.44"/>
    <circle class="cls-1" cx="26.46" cy="100.24" r="7.03"/>
    <circle class="cls-1" cx="26.46" cy="69.87" r="7.03"/>
    <circle class="cls-1" cx="56.66" cy="100.24" r="7.88"/>
    <path class="cls-1" d="M86.86,91.51c-4.82,0-8.74,3.91-8.74,8.74s3.91,8.73,8.74,8.73,8.74-3.91,8.74-8.73-3.91-8.74-8.74-8.74Z"/>
    <path class="cls-1" d="M107.48,100.24c0,5.3,4.29,9.59,9.59,9.59s9.59-4.29,9.59-9.59-4.29-9.59-9.59-9.59-9.59,4.29-9.59,9.59Z"/>
    <circle class="cls-1" cx="147.27" cy="100.24" r="10.44"/>
    <path class="cls-1" d="M42.04,61.71c3.15,0,5.79-2.09,6.68-4.95h-13.23s-.08,0-.12,0c.89,2.86,3.53,4.94,6.68,4.94Z"/>
    <path class="cls-1" d="M72.25,62.57c3.63,0,6.68-2.46,7.59-5.8h-15.19c.91,3.34,3.96,5.8,7.59,5.8Z"/>
    <path class="cls-1" d="M102.45,63.42c4.11,0,7.54-2.84,8.48-6.66h-16.95c.93,3.82,4.37,6.66,8.48,6.66Z"/>
    <path class="cls-1" d="M132.66,64.28c4.58,0,8.41-3.22,9.36-7.51h-18.71c.95,4.3,4.78,7.51,9.36,7.51Z"/>
    <circle class="cls-1" cx="42.04" cy="85.06" r="7.03"/>
    <circle class="cls-1" cx="72.25" cy="85.06" r="7.88" transform="translate(-12.69 12.67) rotate(-9.22)"/>
    <circle class="cls-1" cx="102.45" cy="85.06" r="8.74"/>
    <circle class="cls-1" cx="132.66" cy="85.06" r="9.59"/>
    <path class="cls-1" d="M26.46,123.58c-3.88,0-7.03,3.15-7.03,7.03s3.15,7.03,7.03,7.03,7.03-3.15,7.03-7.03-3.15-7.03-7.03-7.03Z"/>
    <circle class="cls-1" cx="56.66" cy="130.61" r="7.88"/>
    <path class="cls-1" d="M86.86,121.88c-4.82,0-8.74,3.91-8.74,8.74s3.91,8.73,8.74,8.73,8.74-3.91,8.74-8.73-3.91-8.74-8.74-8.74Z"/>
    <path class="cls-1" d="M126.66,130.61c0-5.3-4.29-9.59-9.59-9.59s-9.59,4.29-9.59,9.59,4.29,9.59,9.59,9.59,9.59-4.29,9.59-9.59Z"/>
    <path class="cls-1" d="M157.71,130.61c0-5.77-4.68-10.44-10.44-10.44s-10.44,4.68-10.44,10.44,4.68,10.44,10.44,10.44,10.44-4.68,10.44-10.44Z"/>
    <path class="cls-1" d="M42.04,122.45c3.88,0,7.03-3.15,7.03-7.03s-3.15-7.03-7.03-7.03-7.03,3.15-7.03,7.03,3.15,7.03,7.03,7.03Z"/>
    <circle class="cls-1" cx="72.25" cy="115.43" r="7.88" transform="translate(-17.56 13.06) rotate(-9.22)"/>
    <path class="cls-1" d="M102.45,106.69c-4.82,0-8.74,3.91-8.74,8.73s3.91,8.74,8.74,8.74,8.74-3.91,8.74-8.74-3.91-8.73-8.74-8.73Z"/>
    <path class="cls-1" d="M142.24,115.43c0-5.3-4.29-9.59-9.59-9.59s-9.59,4.29-9.59,9.59,4.29,9.59,9.59,9.59,9.59-4.29,9.59-9.59Z"/>
    <circle class="cls-1" cx="26.46" cy="160.98" r="7.03"/>
    <circle class="cls-1" cx="56.66" cy="160.98" r="7.88"/>
    <circle class="cls-1" cx="86.86" cy="160.98" r="8.74" transform="translate(-95.1 179.63) rotate(-67.5)"/>
    <circle class="cls-1" cx="117.07" cy="160.98" r="9.59"/>
    <circle class="cls-1" cx="147.27" cy="160.98" r="10.44"/>
    <circle class="cls-1" cx="42.04" cy="145.79" r="7.03"/>
    <circle class="cls-1" cx="72.25" cy="145.79" r="7.88" transform="translate(-90.1 156.75) rotate(-67.5)"/>
    <path class="cls-1" d="M111.19,145.79c0-4.82-3.91-8.73-8.74-8.73s-8.74,3.91-8.74,8.73,3.91,8.74,8.74,8.74,8.74-3.91,8.74-8.74Z"/>
    <path class="cls-1" d="M142.24,145.79c0-5.3-4.29-9.59-9.59-9.59s-9.59,4.29-9.59,9.59,4.29,9.59,9.59,9.59,9.59-4.29,9.59-9.59Z"/>
    <path class="cls-1" d="M26.46,184.32c-3.88,0-7.03,3.15-7.03,7.03s3.15,7.03,7.03,7.03,7.03-3.15,7.03-7.03-3.15-7.03-7.03-7.03Z"/>
    <circle class="cls-1" cx="56.66" cy="191.35" r="7.88"/>
    <path class="cls-1" d="M86.86,200.08c4.82,0,8.74-3.91,8.74-8.74s-3.91-8.73-8.74-8.73-8.74,3.91-8.74,8.73,3.91,8.74,8.74,8.74Z"/>
    <path class="cls-1" d="M126.66,191.35c0-5.3-4.29-9.59-9.59-9.59s-9.59,4.29-9.59,9.59,4.29,9.59,9.59,9.59,9.59-4.29,9.59-9.59Z"/>
    <path class="cls-1" d="M157.71,191.35c0-5.77-4.68-10.44-10.44-10.44s-10.44,4.68-10.44,10.44,4.68,10.44,10.44,10.44,10.44-4.68,10.44-10.44Z"/>
    <path class="cls-1" d="M42.04,183.19c3.88,0,7.03-3.15,7.03-7.03s-3.15-7.03-7.03-7.03-7.03,3.15-7.03,7.03,3.15,7.03,7.03,7.03Z"/>
    <circle class="cls-1" cx="72.25" cy="176.16" r="7.88" transform="translate(-118.15 175.5) rotate(-67.5)"/>
    <path class="cls-1" d="M111.19,176.16c0-4.82-3.91-8.74-8.74-8.74s-8.74,3.91-8.74,8.74,3.91,8.73,8.74,8.73,8.74-3.91,8.74-8.73Z"/>
    <path class="cls-1" d="M142.24,176.16c0-5.3-4.29-9.59-9.59-9.59s-9.59,4.29-9.59,9.59,4.29,9.59,9.59,9.59,9.59-4.29,9.59-9.59Z"/>
    <circle class="cls-1" cx="26.46" cy="221.72" r="7.03"/>
    <circle class="cls-1" cx="56.66" cy="221.72" r="7.88"/>
    <circle class="cls-1" cx="86.86" cy="221.72" r="8.73" transform="translate(-142.33 286.31) rotate(-84.35)"/>
    <circle class="cls-1" cx="117.07" cy="221.72" r="9.59"/>
    <circle class="cls-1" cx="147.27" cy="221.72" r="10.44"/>
    <path class="cls-1" d="M42.04,213.56c3.88,0,7.03-3.15,7.03-7.03s-3.15-7.03-7.03-7.03-7.03,3.15-7.03,7.03,3.15,7.03,7.03,7.03Z"/>
    <circle class="cls-1" cx="72.25" cy="206.53" r="7.88" transform="translate(-146.21 194.24) rotate(-67.5)"/>
    <path class="cls-1" d="M111.19,206.53c0-4.82-3.91-8.74-8.74-8.74s-8.74,3.91-8.74,8.74,3.91,8.73,8.74,8.73,8.74-3.91,8.74-8.73Z"/>
    <path class="cls-1" d="M142.24,206.53c0-5.3-4.29-9.59-9.59-9.59s-9.59,4.29-9.59,9.59,4.29,9.59,9.59,9.59,9.59-4.29,9.59-9.59Z"/>
    <path class="cls-1" d="M26.46,245.06c-2.33,0-4.37,1.14-5.65,2.89,1.96,4.44,5.88,7.81,10.67,9.05,1.24-1.27,2.01-3,2.01-4.91,0-3.88-3.15-7.03-7.03-7.03Z"/>
    <path class="cls-1" d="M50.96,257.52h11.39c1.35-1.41,2.19-3.33,2.19-5.44,0-4.35-3.53-7.88-7.88-7.88s-7.88,3.53-7.88,7.88c0,2.11.83,4.02,2.19,5.44Z"/>
    <path class="cls-1" d="M80.03,257.52h13.66c1.19-1.49,1.91-3.38,1.91-5.44,0-4.82-3.91-8.74-8.74-8.74s-8.74,3.91-8.74,8.74c0,2.06.72,3.94,1.91,5.44Z"/>
    <circle class="cls-1" cx="147.27" cy="252.09" r="10.44"/>
    <circle class="cls-1" cx="42.04" cy="236.9" r="7.03"/>
    <circle class="cls-1" cx="72.25" cy="236.9" r="7.88" transform="translate(-174.27 212.99) rotate(-67.5)"/>
    <circle class="cls-1" cx="102.45" cy="236.9" r="8.74"/>
    <circle class="cls-1" cx="132.66" cy="236.9" r="9.59"/>
    <circle class="cls-1" cx="86.86" cy="282.46" r="8.74" transform="translate(-44.12 17.56) rotate(-9.22)"/>
    <circle class="cls-1" cx="117.07" cy="282.46" r="9.59"/>
    <path class="cls-1" d="M157.71,282.46c0-5.77-4.68-10.44-10.44-10.44s-10.44,4.68-10.44,10.44,4.68,10.44,10.44,10.44,10.44-4.68,10.44-10.44Z"/>
    <path class="cls-1" d="M111.19,267.27c0-1.91-.62-3.68-1.67-5.12-5.41,1.17-10.68,2.72-15.78,4.63,0,.16-.02.32-.02.49,0,4.82,3.91,8.74,8.74,8.74s8.74-3.91,8.74-8.74Z"/>
    <circle class="cls-1" cx="56.66" cy="312.82" r="7.88"/>
    <circle class="cls-1" cx="86.86" cy="312.82" r="8.74" transform="translate(-48.99 17.95) rotate(-9.22)"/>
    <circle class="cls-1" cx="117.07" cy="312.82" r="9.59"/>
    <path class="cls-1" d="M157.71,312.82c0-5.77-4.68-10.44-10.44-10.44s-10.44,4.68-10.44,10.44,4.68,10.44,10.44,10.44,10.44-4.68,10.44-10.44Z"/>
    <circle class="cls-1" cx="72.25" cy="297.64" r="7.88" transform="translate(-230.38 250.49) rotate(-67.5)"/>
    <circle class="cls-1" cx="102.45" cy="297.64" r="8.73"/>
    <circle class="cls-1" cx="132.66" cy="297.64" r="9.59"/>
    <path class="cls-1" d="M26.46,336.17c-.22,0-.42.04-.63.06-1.43,4.08-2.62,8.27-3.58,12.55,1.18.89,2.63,1.43,4.21,1.43,3.88,0,7.03-3.15,7.03-7.03s-3.15-7.03-7.03-7.03Z"/>
    <circle class="cls-1" cx="56.66" cy="343.19" r="7.88"/>
    <path class="cls-1" d="M86.86,351.93c4.82,0,8.74-3.91,8.74-8.74s-3.91-8.73-8.74-8.73-8.74,3.91-8.74,8.73,3.91,8.74,8.74,8.74Z"/>
    <path class="cls-1" d="M126.66,343.19c0-5.3-4.29-9.59-9.59-9.59s-9.59,4.29-9.59,9.59,4.29,9.59,9.59,9.59,9.59-4.29,9.59-9.59Z"/>
    <circle class="cls-1" cx="147.27" cy="343.19" r="10.44"/>
    <path class="cls-1" d="M42.04,335.04c3.88,0,7.03-3.15,7.03-7.03s-3.15-7.03-7.03-7.03-7.03,3.15-7.03,7.03,3.15,7.03,7.03,7.03Z"/>
    <circle class="cls-1" cx="72.25" cy="328.01" r="7.88" transform="translate(-258.44 269.23) rotate(-67.5)"/>
    <path class="cls-1" d="M111.19,328.01c0-4.82-3.91-8.74-8.74-8.74s-8.74,3.91-8.74,8.74,3.91,8.73,8.74,8.73,8.74-3.91,8.74-8.73Z"/>
    <path class="cls-1" d="M142.24,328.01c0-5.3-4.29-9.59-9.59-9.59s-9.59,4.29-9.59,9.59,4.29,9.59,9.59,9.59,9.59-4.29,9.59-9.59Z"/>
    <path class="cls-1" d="M26.46,366.54c-3.83,0-6.94,3.08-7.01,6.89,0,.07,0,.14,0,.21.04,3.84,3.17,6.95,7.02,6.95s7.03-3.15,7.03-7.03-3.15-7.03-7.03-7.03Z"/>
    <circle class="cls-1" cx="56.66" cy="373.56" r="7.88"/>
    <circle class="cls-1" cx="86.86" cy="373.56" r="8.73" transform="translate(-293.44 423.19) rotate(-84.35)"/>
    <circle class="cls-1" cx="117.07" cy="373.56" r="9.59"/>
    <circle class="cls-1" cx="147.27" cy="373.56" r="10.44"/>
    <circle class="cls-1" cx="42.04" cy="358.38" r="7.03"/>
    <circle class="cls-1" cx="72.25" cy="358.38" r="7.88" transform="translate(-286.5 287.98) rotate(-67.5)"/>
    <circle class="cls-1" cx="102.45" cy="358.38" r="8.74"/>
    <circle class="cls-1" cx="132.66" cy="358.38" r="9.59"/>
    <path class="cls-1" d="M26.46,396.91c-3.88,0-7.03,3.15-7.03,7.03s3.15,7.03,7.03,7.03,7.03-3.15,7.03-7.03-3.15-7.03-7.03-7.03Z"/>
    <circle class="cls-1" cx="56.66" cy="403.93" r="7.88"/>
    <path class="cls-1" d="M86.86,412.67c4.82,0,8.74-3.91,8.74-8.73s-3.91-8.74-8.74-8.74-8.74,3.91-8.74,8.74,3.91,8.73,8.74,8.73Z"/>
    <path class="cls-1" d="M126.66,403.93c0-5.3-4.29-9.59-9.59-9.59s-9.59,4.29-9.59,9.59,4.29,9.59,9.59,9.59,9.59-4.29,9.59-9.59Z"/>
    <path class="cls-1" d="M157.71,403.93c0-5.77-4.68-10.44-10.44-10.44s-10.44,4.68-10.44,10.44,4.68,10.44,10.44,10.44,10.44-4.68,10.44-10.44Z"/>
    <path class="cls-1" d="M42.04,395.77c3.88,0,7.03-3.15,7.03-7.03s-3.15-7.03-7.03-7.03-7.03,3.15-7.03,7.03,3.15,7.03,7.03,7.03Z"/>
    <circle class="cls-1" cx="72.25" cy="388.75" r="7.88" transform="translate(-314.56 306.73) rotate(-67.5)"/>
    <path class="cls-1" d="M111.19,388.75c0-4.82-3.91-8.73-8.74-8.73s-8.74,3.91-8.74,8.73,3.91,8.74,8.74,8.74,8.74-3.91,8.74-8.74Z"/>
    <path class="cls-1" d="M142.24,388.75c0-5.3-4.29-9.59-9.59-9.59s-9.59,4.29-9.59,9.59,4.29,9.59,9.59,9.59,9.59-4.29,9.59-9.59Z"/>
    <circle class="cls-1" cx="26.46" cy="434.3" r="7.03"/>
    <circle class="cls-1" cx="56.66" cy="434.3" r="7.88"/>
    <circle class="cls-1" cx="86.86" cy="434.3" r="8.74" transform="translate(-68.45 19.52) rotate(-9.22)"/>
    <circle class="cls-1" cx="117.07" cy="434.3" r="9.59"/>
    <circle class="cls-1" cx="147.27" cy="434.3" r="10.44"/>
    <path class="cls-1" d="M42.04,426.14c3.88,0,7.03-3.15,7.03-7.03s-3.15-7.03-7.03-7.03-7.03,3.15-7.03,7.03,3.15,7.03,7.03,7.03Z"/>
    <circle class="cls-1" cx="72.25" cy="419.12" r="7.88" transform="translate(-342.61 325.48) rotate(-67.5)"/>
    <path class="cls-1" d="M93.72,419.12c0,4.82,3.91,8.74,8.74,8.74s8.74-3.91,8.74-8.74-3.91-8.73-8.74-8.73-8.74,3.91-8.74,8.73Z"/>
    <path class="cls-1" d="M142.24,419.12c0-5.3-4.29-9.59-9.59-9.59s-9.59,4.29-9.59,9.59,4.29,9.59,9.59,9.59,9.59-4.29,9.59-9.59Z"/>
    <path class="cls-1" d="M26.46,457.64c-3.88,0-7.03,3.15-7.03,7.03s3.15,7.03,7.03,7.03,7.03-3.15,7.03-7.03-3.15-7.03-7.03-7.03Z"/>
    <circle class="cls-1" cx="56.66" cy="464.67" r="7.88"/>
    <path class="cls-1" d="M86.86,473.4c4.82,0,8.74-3.91,8.74-8.74s-3.91-8.73-8.74-8.73-8.74,3.91-8.74,8.73,3.91,8.74,8.74,8.74Z"/>
    <path class="cls-1" d="M126.66,464.67c0-5.3-4.29-9.59-9.59-9.59s-9.59,4.29-9.59,9.59,4.29,9.59,9.59,9.59,9.59-4.29,9.59-9.59Z"/>
    <path class="cls-1" d="M157.71,464.67c0-5.77-4.68-10.44-10.44-10.44s-10.44,4.68-10.44,10.44,4.68,10.44,10.44,10.44,10.44-4.68,10.44-10.44Z"/>
    <circle class="cls-1" cx="42.04" cy="449.49" r="7.03"/>
    <circle class="cls-1" cx="72.25" cy="449.49" r="7.88" transform="translate(-370.67 344.22) rotate(-67.5)"/>
    <circle class="cls-1" cx="102.45" cy="449.49" r="8.73"/>
    <path class="cls-1" d="M142.24,449.49c0-5.3-4.29-9.59-9.59-9.59s-9.59,4.29-9.59,9.59,4.29,9.59,9.59,9.59,9.59-4.29,9.59-9.59Z"/>
    <circle class="cls-1" cx="26.46" cy="495.04" r="7.03"/>
    <circle class="cls-1" cx="26.46" cy="525.41" r="7.03"/>
    <circle class="cls-1" cx="56.66" cy="495.04" r="7.88"/>
    <path class="cls-1" d="M86.86,503.77c4.82,0,8.74-3.91,8.74-8.74s-3.91-8.73-8.74-8.73-8.74,3.91-8.74,8.73,3.91,8.74,8.74,8.74Z"/>
    <circle class="cls-1" cx="117.07" cy="495.04" r="9.59"/>
    <circle class="cls-1" cx="147.27" cy="495.04" r="10.44"/>
    <circle class="cls-1" cx="42.04" cy="479.85" r="7.03"/>
    <circle class="cls-1" cx="72.25" cy="479.85" r="7.88" transform="translate(-398.73 362.97) rotate(-67.5)"/>
    <path class="cls-1" d="M102.45,488.59c4.82,0,8.74-3.91,8.74-8.73s-3.91-8.74-8.74-8.74-8.74,3.91-8.74,8.74,3.91,8.73,8.74,8.73Z"/>
    <path class="cls-1" d="M132.66,489.44c5.3,0,9.59-4.29,9.59-9.59s-4.29-9.59-9.59-9.59-9.59,4.29-9.59,9.59,4.29,9.59,9.59,9.59Z"/>
    <circle class="cls-1" cx="56.66" cy="525.41" r="7.88"/>
    <circle class="cls-1" cx="86.86" cy="525.41" r="8.74" transform="translate(-37.03 7.48) rotate(-4.07)"/>
    <path class="cls-1" d="M126.66,525.41c0-5.3-4.29-9.59-9.59-9.59s-9.59,4.29-9.59,9.59,4.29,9.59,9.59,9.59,9.59-4.29,9.59-9.59Z"/>
    <circle class="cls-1" cx="147.27" cy="525.41" r="10.44"/>
    <path class="cls-1" d="M42.04,517.25c3.88,0,7.03-3.15,7.03-7.03s-3.15-7.03-7.03-7.03-7.03,3.15-7.03,7.03,3.15,7.03,7.03,7.03Z"/>
    <path class="cls-1" d="M72.25,518.1c4.35,0,7.88-3.53,7.88-7.88s-3.53-7.88-7.88-7.88-7.88,3.53-7.88,7.88,3.53,7.88,7.88,7.88Z"/>
    <path class="cls-1" d="M102.45,518.96c4.82,0,8.74-3.91,8.74-8.73s-3.91-8.74-8.74-8.74-8.74,3.91-8.74,8.74,3.91,8.73,8.74,8.73Z"/>
    <path class="cls-1" d="M132.66,519.81c5.3,0,9.59-4.29,9.59-9.59s-4.29-9.59-9.59-9.59-9.59,4.29-9.59,9.59,4.29,9.59,9.59,9.59Z"/>
    <path class="cls-1" d="M42.04,533.57c-3.18,0-5.83,2.12-6.7,5.01.05,0,.1,0,.14,0h13.25c-.87-2.9-3.52-5.02-6.7-5.02Z"/>
    <path class="cls-1" d="M72.25,532.71c-3.66,0-6.72,2.5-7.61,5.87h15.23c-.89-3.38-3.96-5.87-7.61-5.87Z"/>
    <path class="cls-1" d="M102.45,531.86c-4.13,0-7.59,2.87-8.49,6.73h16.99c-.91-3.85-4.36-6.73-8.49-6.73Z"/>
    <path class="cls-1" d="M132.66,531c-4.61,0-8.45,3.25-9.38,7.58h18.75c-.92-4.33-4.77-7.58-9.38-7.58Z"/>
    <path class="cls-1" d="M581.55,56.7c-66.17,0-126.1,26.68-169.64,69.86-17.4-41.02-58.04-69.79-105.4-69.79h-153.89c.96,4.77,5.18,8.37,10.24,8.37,1.85,0,3.59-.49,5.1-1.34-1.12,1.76-1.78,3.84-1.78,6.08s.66,4.32,1.78,6.08c-1.51-.85-3.25-1.34-5.1-1.34-5.77,0-10.44,4.68-10.44,10.44s4.68,10.44,10.44,10.44c1.85,0,3.59-.49,5.1-1.34-1.12,1.76-1.78,3.84-1.78,6.08s.66,4.32,1.78,6.08c-1.51-.85-3.25-1.34-5.1-1.34-5.77,0-10.44,4.68-10.44,10.44s4.68,10.44,10.44,10.44c1.85,0,3.59-.49,5.1-1.34-1.12,1.76-1.78,3.84-1.78,6.08s.66,4.32,1.78,6.08c-1.51-.85-3.25-1.34-5.1-1.34-5.77,0-10.44,4.68-10.44,10.44s4.68,10.44,10.44,10.44c1.85,0,3.59-.49,5.1-1.34-1.12,1.76-1.78,3.84-1.78,6.08s.66,4.32,1.78,6.08c-1.51-.85-3.25-1.34-5.1-1.34-5.77,0-10.44,4.68-10.44,10.44s4.68,10.44,10.44,10.44c1.85,0,3.59-.49,5.1-1.34-1.12,1.76-1.78,3.84-1.78,6.08s.66,4.32,1.78,6.08c-1.51-.85-3.25-1.34-5.1-1.34-5.77,0-10.44,4.68-10.44,10.44s4.68,10.44,10.44,10.44c1.85,0,3.59-.49,5.1-1.34-1.12,1.76-1.78,3.84-1.78,6.08s.66,4.32,1.78,6.08c-1.51-.85-3.25-1.34-5.1-1.34-5.77,0-10.44,4.68-10.44,10.44s4.68,10.44,10.44,10.44c1.85,0,3.59-.49,5.1-1.34-1.12,1.76-1.78,3.84-1.78,6.08s.66,4.32,1.78,6.08c-1.51-.85-3.25-1.34-5.1-1.34-5.77,0-10.44,4.68-10.44,10.44s4.68,10.44,10.44,10.44c1.85,0,3.59-.49,5.1-1.34-1.12,1.76-1.78,3.84-1.78,6.08s.66,4.32,1.78,6.08c-1.51-.85-3.25-1.34-5.1-1.34-5.77,0-10.44,4.68-10.44,10.44s4.68,10.44,10.44,10.44c1.85,0,3.59-.49,5.1-1.34-1.12,1.76-1.78,3.84-1.78,6.08s.66,4.32,1.78,6.08c-1.51-.85-3.25-1.34-5.1-1.34-5.77,0-10.44,4.68-10.44,10.44s4.68,10.44,10.44,10.44c1.85,0,3.59-.49,5.1-1.34-1.12,1.76-1.78,3.84-1.78,6.08s.66,4.32,1.78,6.08c-1.51-.85-3.25-1.34-5.1-1.34-5.77,0-10.44,4.68-10.44,10.44s4.68,10.44,10.44,10.44c1.85,0,3.59-.49,5.1-1.34-1.12,1.76-1.78,3.84-1.78,6.08s.66,4.32,1.78,6.08c-1.51-.85-3.25-1.34-5.1-1.34-5.77,0-10.44,4.68-10.44,10.44s4.68,10.44,10.44,10.44c1.85,0,3.59-.49,5.1-1.34-1.12,1.76-1.78,3.84-1.78,6.08,0,2.07.57,4,1.54,5.67h-.57c-1.31-.59-2.76-.93-4.29-.93-5.77,0-10.44,4.68-10.44,10.44s4.68,10.44,10.44,10.44c1.85,0,3.59-.49,5.1-1.34-1.12,1.76-1.78,3.84-1.78,6.08s.66,4.32,1.78,6.08c-1.51-.85-3.25-1.34-5.1-1.34-5.77,0-10.44,4.68-10.44,10.44s4.68,10.44,10.44,10.44c1.85,0,3.59-.49,5.1-1.34-1.12,1.76-1.78,3.84-1.78,6.08s.66,4.32,1.78,6.08c-1.51-.85-3.25-1.34-5.1-1.34-5.77,0-10.44,4.68-10.44,10.44s4.68,10.44,10.44,10.44c1.85,0,3.59-.49,5.1-1.34-1.12,1.76-1.78,3.84-1.78,6.08s.66,4.32,1.78,6.08c-1.51-.85-3.25-1.34-5.1-1.34-5.77,0-10.44,4.68-10.44,10.44s4.68,10.44,10.44,10.44c1.85,0,3.59-.49,5.1-1.34-1.12,1.76-1.78,3.84-1.78,6.08s.66,4.32,1.78,6.08c-1.51-.85-3.25-1.34-5.1-1.34-5.08,0-9.31,3.63-10.25,8.44h252.27c8.87,0,16.06-7.19,16.06-16.06v-45.35c42.62,38.15,98.9,61.34,160.61,61.34,133.05,0,240.91-107.86,240.91-240.91s-107.86-240.91-240.91-240.91ZM171.75,504.77c1.68.99,3.63,1.57,5.72,1.57s4.01-.57,5.68-1.54c-.89,1.61-1.39,3.46-1.39,5.43s.51,3.82,1.39,5.43c-1.67-.98-3.61-1.54-5.68-1.54s-4.04.58-5.72,1.57c.98-1.59,1.55-3.45,1.55-5.46s-.57-3.87-1.55-5.46ZM171.75,474.4c1.68.99,3.63,1.57,5.72,1.57s4.01-.57,5.68-1.54c-.89,1.61-1.39,3.46-1.39,5.43s.51,3.82,1.39,5.43c-1.67-.97-3.61-1.54-5.68-1.54s-4.04.58-5.72,1.57c.98-1.59,1.55-3.45,1.55-5.46s-.57-3.87-1.55-5.46ZM171.75,444.03c1.68.99,3.63,1.57,5.72,1.57s4.01-.57,5.68-1.54c-.89,1.61-1.39,3.46-1.39,5.43s.51,3.82,1.39,5.43c-1.67-.98-3.61-1.54-5.68-1.54s-4.04.58-5.72,1.57c.98-1.59,1.55-3.45,1.55-5.46s-.57-3.87-1.55-5.46ZM171.75,140.34c1.68.99,3.63,1.57,5.72,1.57s4.01-.57,5.68-1.54c-.89,1.61-1.39,3.46-1.39,5.43s.51,3.82,1.39,5.43c-1.67-.98-3.61-1.54-5.68-1.54s-4.04.58-5.72,1.57c.98-1.59,1.55-3.45,1.55-5.46s-.57-3.87-1.55-5.46ZM171.75,109.97c1.68.99,3.63,1.57,5.72,1.57s4.01-.57,5.68-1.54c-.89,1.61-1.39,3.46-1.39,5.43s.51,3.82,1.39,5.43c-1.67-.98-3.61-1.54-5.68-1.54s-4.04.58-5.72,1.57c.98-1.59,1.55-3.45,1.55-5.46s-.57-3.87-1.55-5.46ZM171.75,79.6c1.68.99,3.63,1.57,5.72,1.57s4.01-.57,5.68-1.54c-.89,1.61-1.39,3.46-1.39,5.43s.51,3.82,1.39,5.43c-1.67-.98-3.61-1.54-5.68-1.54s-4.04.58-5.72,1.57c.98-1.59,1.55-3.45,1.55-5.46s-.57-3.87-1.55-5.46ZM240.71,512.72c-.91-.2-1.85-.32-2.83-.32s-1.84.1-2.72.29c.16-.8.25-1.62.25-2.47s-.09-1.67-.25-2.47c.88.19,1.78.29,2.72.29s1.92-.12,2.83-.32c-.16.81-.25,1.64-.25,2.5s.09,1.69.25,2.5ZM211.7,513.95c-1.26-.44-2.61-.7-4.02-.7s-2.71.24-3.95.67c.4-1.16.63-2.4.63-3.7s-.23-2.54-.63-3.7c1.24.43,2.57.67,3.95.67s2.76-.25,4.02-.7c-.38,1.18-.59,2.43-.59,3.73s.21,2.55.59,3.73ZM187.38,368.13c1.67.98,3.61,1.54,5.68,1.54,1.14,0,2.25-.17,3.29-.49-.53,1.36-.83,2.83-.83,4.38s.3,3.02.83,4.38c-1.04-.32-2.14-.49-3.29-.49-2.07,0-4.01.57-5.68,1.54.89-1.61,1.39-3.46,1.39-5.43s-.51-3.82-1.39-5.43ZM203.73,81.35c1.24.43,2.57.67,3.95.67s2.76-.25,4.02-.7c-.38,1.18-.59,2.43-.59,3.73s.21,2.55.59,3.73c-1.26-.44-2.61-.7-4.02-.7s-2.71.24-3.95.67c.4-1.16.63-2.4.63-3.7s-.23-2.54-.63-3.7ZM235.17,82.59c.88.19,1.78.29,2.72.29s1.92-.11,2.83-.32c-.16.81-.25,1.64-.25,2.5s.09,1.69.25,2.5c-.91-.2-1.85-.32-2.83-.32s-1.84.1-2.72.29c.16-.8.25-1.62.25-2.47s-.09-1.67-.25-2.47ZM240.71,482.35c-.91-.2-1.85-.32-2.83-.32s-1.84.1-2.72.29c.16-.8.25-1.62.25-2.47s-.09-1.67-.25-2.47c.88.19,1.78.29,2.72.29s1.92-.11,2.83-.32c-.16.81-.25,1.64-.25,2.5s.09,1.69.25,2.5ZM211.7,483.58c-1.26-.44-2.61-.7-4.02-.7s-2.71.24-3.95.67c.4-1.16.63-2.4.63-3.7s-.23-2.54-.63-3.7c1.24.43,2.57.67,3.95.67s2.76-.25,4.02-.7c-.38,1.18-.59,2.43-.59,3.73s.21,2.55.59,3.73ZM187.38,155.55c1.67.98,3.61,1.54,5.68,1.54,1.14,0,2.25-.17,3.29-.49-.53,1.36-.83,2.83-.83,4.38s.3,3.02.83,4.38c-1.04-.32-2.14-.49-3.29-.49-2.07,0-4.01.57-5.68,1.54.89-1.61,1.39-3.46,1.39-5.43s-.51-3.82-1.39-5.43ZM203.73,111.72c1.24.43,2.57.67,3.95.67s2.76-.25,4.02-.7c-.38,1.18-.59,2.43-.59,3.73s.21,2.55.59,3.73c-1.26-.44-2.61-.7-4.02-.7s-2.71.24-3.95.67c.4-1.16.63-2.4.63-3.7s-.23-2.54-.63-3.7ZM235.17,112.96c.88.19,1.78.29,2.72.29s1.92-.11,2.83-.32c-.16.81-.25,1.64-.25,2.5s.09,1.69.25,2.5c-.91-.2-1.85-.32-2.83-.32s-1.84.1-2.72.29c.16-.8.25-1.62.25-2.47s-.09-1.67-.25-2.47ZM240.71,451.98c-.91-.2-1.85-.32-2.83-.32s-1.84.1-2.72.29c.16-.8.25-1.62.25-2.47s-.09-1.67-.25-2.47c.88.19,1.78.29,2.72.29s1.92-.11,2.83-.32c-.16.81-.25,1.64-.25,2.5s.09,1.69.25,2.5ZM211.7,453.21c-1.26-.44-2.61-.7-4.02-.7s-2.71.24-3.95.67c.4-1.16.63-2.4.63-3.7s-.23-2.54-.63-3.7c1.24.43,2.57.67,3.95.67s2.76-.25,4.02-.7c-.38,1.18-.59,2.43-.59,3.73s.21,2.55.59,3.73ZM203.73,354.68c1.24.43,2.57.67,3.95.67s2.76-.25,4.02-.7c-.38,1.18-.59,2.43-.59,3.73s.21,2.55.59,3.73c-1.26-.44-2.61-.7-4.02-.7s-2.71.24-3.95.67c.4-1.16.63-2.4.63-3.7s-.23-2.54-.63-3.7ZM203.73,142.09c1.24.43,2.57.67,3.95.67s2.76-.25,4.02-.7c-.38,1.18-.59,2.43-.59,3.73s.21,2.55.59,3.73c-1.26-.44-2.61-.7-4.02-.7s-2.71.24-3.95.67c.4-1.16.63-2.4.63-3.7s-.23-2.54-.63-3.7ZM235.17,143.33c.88.19,1.78.29,2.72.29s1.92-.11,2.83-.32c-.16.81-.25,1.64-.25,2.5s.09,1.69.25,2.5c-.91-.2-1.85-.32-2.83-.32s-1.84.1-2.72.29c.16-.8.25-1.62.25-2.47s-.09-1.67-.25-2.47ZM203.73,293.94c1.24.43,2.57.67,3.95.67s2.76-.25,4.02-.7c-.38,1.18-.59,2.43-.59,3.73s.21,2.55.59,3.73c-1.26-.44-2.61-.7-4.02-.7s-2.71.24-3.95.67c.4-1.16.63-2.4.63-3.7s-.23-2.54-.63-3.7ZM203.73,233.2c1.24.43,2.57.67,3.95.67s2.76-.25,4.02-.7c-.38,1.18-.59,2.43-.59,3.73s.21,2.55.59,3.73c-1.26-.44-2.61-.7-4.02-.7s-2.71.24-3.95.67c.4-1.16.63-2.4.63-3.7s-.23-2.54-.63-3.7ZM219.24,369.83c1.26.44,2.61.7,4.02.7.69,0,1.37-.07,2.03-.18-.26,1.03-.42,2.1-.42,3.21s.15,2.18.42,3.21c-.66-.11-1.33-.18-2.03-.18-1.41,0-2.76.25-4.02.7.38-1.18.59-2.43.59-3.73s-.21-2.55-.59-3.73ZM219.24,339.46c1.26.44,2.61.7,4.02.7.69,0,1.37-.07,2.03-.18-.26,1.03-.42,2.1-.42,3.21s.15,2.18.42,3.22c-.66-.11-1.33-.18-2.03-.18-1.41,0-2.76.25-4.02.7.38-1.18.59-2.43.59-3.73s-.21-2.55-.59-3.73ZM235.17,234.44c.88.19,1.78.29,2.72.29s1.92-.11,2.83-.32c-.16.81-.25,1.64-.25,2.5s.09,1.69.25,2.5c-.91-.2-1.85-.32-2.83-.32s-1.84.1-2.72.29c.16-.8.25-1.62.25-2.47s-.09-1.67-.25-2.47ZM235.17,355.91c.88.19,1.78.29,2.72.29s1.92-.11,2.83-.32c-.16.81-.25,1.64-.25,2.5s.09,1.69.25,2.5c-.91-.2-1.85-.32-2.83-.32s-1.84.1-2.72.29c.16-.8.25-1.62.25-2.47s-.09-1.67-.25-2.47ZM235.17,325.54c.88.19,1.78.29,2.72.29s1.92-.11,2.83-.32c-.16.81-.25,1.64-.25,2.5s.09,1.69.25,2.5c-.91-.2-1.85-.32-2.83-.32s-1.84.1-2.72.29c.16-.8.25-1.62.25-2.47s-.09-1.67-.25-2.47ZM250.64,340.7c.91.2,1.85.32,2.83.32.32,0,.64-.03.95-.05-.12.73-.2,1.47-.2,2.23s.08,1.5.2,2.23c-.32-.02-.63-.05-.95-.05-.97,0-1.92.11-2.83.32.16-.81.25-1.64.25-2.5s-.09-1.69-.25-2.5ZM254.42,315.05c-.32-.02-.63-.05-.95-.05-.97,0-1.92.11-2.83.32.16-.81.25-1.64.25-2.5s-.09-1.69-.25-2.5c.91.2,1.85.32,2.83.32.32,0,.64-.03.95-.05-.12.73-.2,1.47-.2,2.23s.08,1.5.2,2.23ZM235.17,295.17c.88.19,1.78.29,2.72.29s1.92-.11,2.83-.32c-.16.81-.25,1.64-.25,2.5s.09,1.69.25,2.5c-.91-.2-1.85-.32-2.83-.32s-1.84.1-2.72.29c.16-.8.25-1.62.25-2.47s-.09-1.67-.25-2.47ZM250.64,371.07c.91.2,1.85.32,2.83.32.32,0,.64-.03.95-.05-.12.73-.2,1.47-.2,2.23s.08,1.5.2,2.23c-.32-.02-.63-.05-.95-.05-.97,0-1.92.11-2.83.32.16-.81.25-1.64.25-2.5s-.09-1.69-.25-2.5ZM254.42,254.31c-.32-.02-.63-.05-.95-.05-.97,0-1.92.11-2.83.32.16-.81.25-1.64.25-2.5s-.09-1.69-.25-2.5c.91.2,1.85.32,2.83.32.32,0,.64-.03.95-.05-.12.73-.2,1.47-.2,2.23s.08,1.5.2,2.23ZM225.29,255.3c-.66-.11-1.33-.18-2.03-.18-1.41,0-2.76.25-4.02.7.38-1.18.59-2.43.59-3.73s-.21-2.55-.59-3.73c1.26.44,2.61.7,4.02.7.69,0,1.37-.07,2.03-.18-.26,1.03-.42,2.1-.42,3.22s.15,2.18.42,3.21ZM219.24,309.1c1.26.44,2.61.7,4.02.7.69,0,1.37-.07,2.03-.18-.26,1.03-.42,2.1-.42,3.21s.15,2.18.42,3.21c-.66-.11-1.33-.18-2.03-.18-1.41,0-2.76.25-4.02.7.38-1.18.59-2.43.59-3.73s-.21-2.55-.59-3.73ZM254.42,223.94c-.32-.02-.63-.05-.95-.05-.97,0-1.92.11-2.83.32.16-.81.25-1.64.25-2.5s-.09-1.69-.25-2.5c.91.2,1.85.32,2.83.32.32,0,.64-.03.95-.05-.12.73-.2,1.47-.2,2.23s.08,1.5.2,2.23ZM225.29,224.93c-.66-.11-1.33-.18-2.03-.18-1.41,0-2.76.25-4.02.7.38-1.18.59-2.43.59-3.73s-.21-2.55-.59-3.73c1.26.44,2.61.7,4.02.7.69,0,1.37-.07,2.03-.18-.26,1.03-.42,2.1-.42,3.21s.15,2.18.42,3.21ZM203.73,324.31c1.24.43,2.57.67,3.95.67s2.76-.25,4.02-.7c-.38,1.18-.59,2.43-.59,3.73s.21,2.55.59,3.73c-1.26-.44-2.61-.7-4.02-.7s-2.71.24-3.95.67c.4-1.16.63-2.4.63-3.7s-.23-2.54-.63-3.7ZM254.42,163.21c-.32-.02-.63-.05-.95-.05-.97,0-1.92.11-2.83.32.16-.81.25-1.64.25-2.5s-.09-1.69-.25-2.5c.91.2,1.85.32,2.83.32.32,0,.64-.03.95-.05-.12.73-.2,1.47-.2,2.23s.08,1.5.2,2.23ZM225.29,164.19c-.66-.11-1.33-.18-2.03-.18-1.41,0-2.76.25-4.02.7.38-1.18.59-2.43.59-3.73s-.21-2.55-.59-3.73c1.26.44,2.61.7,4.02.7.69,0,1.37-.07,2.03-.18-.26,1.03-.42,2.1-.42,3.21s.15,2.18.42,3.21ZM187.38,428.87c1.67.97,3.61,1.54,5.68,1.54,1.14,0,2.25-.17,3.29-.49-.53,1.36-.83,2.83-.83,4.38s.3,3.02.83,4.38c-1.04-.32-2.14-.49-3.29-.49-2.07,0-4.01.57-5.68,1.54.89-1.61,1.39-3.46,1.39-5.43s-.51-3.82-1.39-5.43ZM219.24,430.57c1.26.44,2.61.7,4.02.7.69,0,1.37-.07,2.03-.18-.26,1.03-.42,2.1-.42,3.21s.15,2.18.42,3.21c-.66-.11-1.33-.18-2.03-.18-1.41,0-2.76.25-4.02.7.38-1.18.59-2.43.59-3.73s-.21-2.55-.59-3.73ZM250.64,431.81c.91.2,1.85.32,2.83.32.32,0,.64-.03.95-.05-.12.73-.2,1.47-.2,2.23s.08,1.5.2,2.23c-.32-.02-.63-.05-.95-.05-.97,0-1.92.11-2.83.32.16-.81.25-1.64.25-2.5s-.09-1.69-.25-2.5ZM254.42,132.84c-.32-.02-.63-.05-.95-.05-.97,0-1.92.11-2.83.32.16-.81.25-1.64.25-2.5s-.09-1.69-.25-2.5c.91.2,1.85.32,2.83.32.32,0,.64-.03.95-.05-.12.73-.2,1.47-.2,2.23s.08,1.5.2,2.23ZM225.29,133.83c-.66-.11-1.33-.18-2.03-.18-1.41,0-2.76.25-4.02.7.38-1.18.59-2.43.59-3.73s-.21-2.55-.59-3.73c1.26.44,2.61.7,4.02.7.69,0,1.37-.07,2.03-.18-.26,1.03-.42,2.1-.42,3.22s.15,2.18.42,3.21ZM196.35,134.99c-1.04-.32-2.14-.49-3.29-.49-2.07,0-4.01.57-5.68,1.54.89-1.61,1.39-3.46,1.39-5.43s-.51-3.82-1.39-5.43c1.67.98,3.61,1.54,5.68,1.54,1.14,0,2.25-.17,3.29-.49-.53,1.36-.83,2.83-.83,4.38s.3,3.02.83,4.38ZM187.38,459.24c1.67.98,3.61,1.54,5.68,1.54,1.14,0,2.25-.17,3.29-.49-.53,1.36-.83,2.83-.83,4.38s.3,3.02.83,4.38c-1.04-.32-2.14-.49-3.29-.49-2.07,0-4.01.57-5.68,1.54.89-1.61,1.39-3.46,1.39-5.43s-.51-3.82-1.39-5.43ZM219.24,460.94c1.26.44,2.61.7,4.02.7.69,0,1.37-.07,2.03-.18-.26,1.03-.42,2.1-.42,3.21s.15,2.18.42,3.22c-.66-.11-1.33-.18-2.03-.18-1.41,0-2.76.25-4.02.7.38-1.18.59-2.43.59-3.73s-.21-2.55-.59-3.73ZM250.64,462.17c.91.2,1.85.32,2.83.32.32,0,.64-.03.95-.05-.12.73-.2,1.47-.2,2.23s.08,1.5.2,2.23c-.32-.02-.63-.05-.95-.05-.97,0-1.92.11-2.83.32.16-.81.25-1.64.25-2.5s-.09-1.69-.25-2.5ZM254.42,102.47c-.32-.02-.63-.05-.95-.05-.97,0-1.92.11-2.83.32.16-.81.25-1.64.25-2.5s-.09-1.69-.25-2.5c.91.2,1.85.32,2.83.32.32,0,.64-.03.95-.05-.12.73-.2,1.47-.2,2.23s.08,1.5.2,2.23ZM225.29,103.46c-.66-.11-1.33-.18-2.03-.18-1.41,0-2.76.25-4.02.7.38-1.18.59-2.43.59-3.73s-.21-2.55-.59-3.73c1.26.44,2.61.7,4.02.7.69,0,1.37-.07,2.03-.18-.26,1.03-.42,2.1-.42,3.21s.15,2.18.42,3.21ZM196.35,104.62c-1.04-.32-2.14-.49-3.29-.49-2.07,0-4.01.57-5.68,1.54.89-1.61,1.39-3.46,1.39-5.43s-.51-3.82-1.39-5.43c1.67.98,3.61,1.54,5.68,1.54,1.14,0,2.25-.17,3.29-.49-.53,1.36-.83,2.83-.83,4.38s.3,3.02.83,4.38ZM187.38,489.61c1.67.98,3.61,1.54,5.68,1.54,1.14,0,2.25-.17,3.29-.49-.53,1.36-.83,2.83-.83,4.38s.3,3.02.83,4.38c-1.04-.32-2.14-.49-3.29-.49-2.07,0-4.01.57-5.68,1.54.89-1.61,1.39-3.46,1.39-5.43s-.51-3.82-1.39-5.43ZM219.24,491.31c1.26.44,2.61.7,4.02.7.69,0,1.37-.07,2.03-.18-.26,1.03-.42,2.1-.42,3.21s.15,2.18.42,3.21c-.66-.11-1.33-.18-2.03-.18-1.41,0-2.76.25-4.02.7.38-1.18.59-2.43.59-3.73s-.21-2.55-.59-3.73ZM250.64,492.54c.91.2,1.85.32,2.83.32.32,0,.64-.03.95-.05-.12.73-.2,1.47-.2,2.23s.08,1.5.2,2.23c-.32-.02-.63-.05-.95-.05-.97,0-1.92.11-2.83.32.16-.81.25-1.64.25-2.5s-.09-1.69-.25-2.5ZM253.47,67.69c.32,0,.64-.03.95-.05-.12.73-.2,1.47-.2,2.23s.08,1.5.2,2.23c-.32-.02-.63-.05-.95-.05-.97,0-1.92.11-2.83.32.16-.81.25-1.64.25-2.5s-.09-1.69-.25-2.5c.91.2,1.85.32,2.83.32ZM225.29,66.66c-.26,1.03-.42,2.1-.42,3.21s.15,2.18.42,3.22c-.66-.11-1.33-.18-2.03-.18-1.41,0-2.76.25-4.02.7.38-1.18.59-2.43.59-3.73s-.21-2.55-.59-3.73c1.26.44,2.61.7,4.02.7.69,0,1.37-.07,2.03-.18ZM193.06,65.99c1.14,0,2.25-.17,3.29-.49-.53,1.36-.83,2.83-.83,4.38s.3,3.02.83,4.38c-1.04-.32-2.14-.49-3.29-.49-2.07,0-4.01.57-5.68,1.54.89-1.61,1.39-3.46,1.39-5.43s-.51-3.82-1.39-5.43c1.67.98,3.61,1.54,5.68,1.54ZM193.06,529.29c-2.07,0-4.01.57-5.68,1.54.89-1.61,1.39-3.46,1.39-5.43s-.51-3.82-1.39-5.43c1.67.97,3.61,1.54,5.68,1.54,1.14,0,2.25-.17,3.29-.49-.53,1.36-.83,2.83-.83,4.38s.3,3.02.83,4.38c-1.04-.32-2.14-.49-3.29-.49ZM223.27,528.44c-1.41,0-2.76.25-4.02.7.38-1.18.59-2.43.59-3.73s-.21-2.55-.59-3.73c1.26.44,2.61.7,4.02.7.69,0,1.37-.07,2.03-.18-.26,1.03-.42,2.1-.42,3.22s.15,2.18.42,3.22c-.66-.11-1.33-.18-2.03-.18ZM253.47,527.59c-.97,0-1.92.11-2.83.32.16-.81.25-1.64.25-2.5s-.09-1.69-.25-2.5c.91.2,1.85.32,2.83.32.32,0,.64-.02.95-.05-.12.73-.2,1.47-.2,2.23s.08,1.5.2,2.23c-.32-.02-.63-.05-.95-.05Z"/>
    <circle class="cls-1" cx="117.07" cy="252.09" r="9.59"/>
    <circle class="cls-1" cx="132.66" cy="267.27" r="9.59"/>
  </g>
  <g>
    <path class="cls-2" d="M429.42,364.12c-51.54,0-93.47-41.93-93.47-93.47,0-51.54,41.93-93.47,93.47-93.47s93.47,41.93,93.47,93.47-41.93,93.47-93.47,93.47ZM429.42,210.52c-33.16,0-60.13,26.98-60.13,60.13s26.98,60.13,60.13,60.13,60.13-26.98,60.13-60.13-26.98-60.13-60.13-60.13Z"/>
    <path class="cls-2" d="M290,363.84c-.88-4.03-2.02-11.14-3.29-23.69-1.2-11.99-3.36-21.03-6.6-27.62-3.38-6.83-8.55-12.23-15.36-16.07-8.09-4.42-19.17-6.56-33.92-6.56h-.92s-32.42,0-32.42,0v73.94h-32.64v-172.99c0-6.81,5.54-12.36,12.36-12.36h72.91c26.19,0,44.55,3.26,54.59,9.68,6.62,4.22,11.82,9.86,15.45,16.77,3.68,6.95,5.54,14.74,5.54,23.17,0,17.25-4.46,30.47-12.87,39.64-10.5,11.46-21.8,15.99-21.8,15.99,0,0,9.24,4.47,12.84,8.07,3.89,3.89,9.72,11.27,12.93,16.72,2.4,4.06,3.74,8.31,4.64,12.22.94,4.04,1.74,10.26,2.38,18.51.86,10.5,1.94,18.61,3.29,24.57h-37.1ZM197.48,263.42h57.17c10.62,0,18.16-1.66,23.03-5.09,7.35-5.27,11.06-14.08,11.06-26.21,0-17.34-9.12-24.27-16.77-27.03-3.75-1.33-9.41-1.98-17.32-1.98h-51.73c-3,0-5.44,2.43-5.44,5.44v54.87Z"/>
    <path class="cls-2" d="M636.13,364.2c-14.32,0-27.03-.9-37.78-2.66-16.28-2.65-29.37-9.85-38.94-21.4-13.95-16.95-21.02-40.45-21.02-69.85,0-32.46,9.98-57.98,29.66-75.83,6.59-5.9,13.69-10.07,21.08-12.38,7.6-2.38,18.05-3.58,31.07-3.58h57.13v25.6h-41.2c-14.71,0-25.21,1.03-32.09,3.14-7.28,2.21-13.41,6.55-18.23,12.9-3.19,4.27-5.4,8.67-6.59,13.1-1.13,4.25-2.06,11.05-2.84,20.8l-.38,4.75h101.32v25.6h-101.34l.4,4.77c1.52,18.18,7.01,31.15,16.31,38.54,9.23,7.33,24.05,10.9,45.29,10.9h39.34v25.6h-41.2Z"/>
    <g>
      <path class="cls-2" d="M191.32,412.24v5.85h-11.47c-2.18,0-3.85-.11-5.01-.34-4.03-.79-6.9-3.04-8.6-6.77-1.12-2.49-1.69-5.57-1.69-9.25,0-4.42.86-8.01,2.58-10.79,1.24-1.99,2.9-3.44,4.98-4.36,2.08-.92,4.77-1.37,8.08-1.37h11.13v5.85h-10.33c-3.13,0-5.43.84-6.89,2.51-1.2,1.38-1.81,3.89-1.81,7.52,0,4.85.94,8.04,2.82,9.56,1.32,1.06,3.36,1.59,6.14,1.59h10.07Z"/>
      <path class="cls-2" d="M207.22,405.59v12.5h-6.99v-32.88h16.04c4.61,0,7.83.59,9.66,1.76,1.24.79,2.2,1.83,2.88,3.12.68,1.29,1.02,2.72,1.02,4.28,0,3.13-.79,5.54-2.38,7.23-.98,1.03-2.28,1.81-3.9,2.36,1.28.43,2.26.91,2.91,1.42.66.51,1.25,1.27,1.78,2.26.4.77.69,1.52.86,2.25.17.73.31,1.81.42,3.24.19,2.36.46,4.01.8,4.96h-7.85c-.24-.77-.48-2.33-.72-4.67-.19-1.93-.54-3.4-1.05-4.42-.51-1.02-1.27-1.82-2.3-2.4-1.27-.69-3.12-1.03-5.54-1.01h-5.64ZM207.22,399.74h9.83c1.64,0,2.8-.24,3.49-.72,1.04-.74,1.57-2.01,1.57-3.81,0-2.01-.79-3.29-2.36-3.85-.55-.19-1.45-.29-2.7-.29h-9.83v8.67Z"/>
      <path class="cls-2" d="M264.11,385.21v5.85h-9.13c-2.39,0-4.13.16-5.22.49-1.08.33-1.99.97-2.71,1.91-.48.64-.81,1.29-.99,1.95-.18.66-.33,1.78-.46,3.37h18.5v5.85h-18.5c.24,2.84,1.07,4.82,2.48,5.93,1.41,1.11,3.81,1.66,7.2,1.66h8.82v5.85h-9.13c-2.47,0-4.65-.15-6.53-.46-2.95-.48-5.31-1.77-7.06-3.88-2.49-3.02-3.73-7.11-3.73-12.28,0-5.73,1.76-10.19,5.28-13.37,1.2-1.08,2.49-1.83,3.85-2.25,1.36-.43,3.19-.64,5.49-.64h11.83Z"/>
      <path class="cls-2" d="M270.42,418.09l13.61-32.88h8.07l13.61,32.88h-8.21l-3.18-7.61h-12.5l-3.18,7.61h-8.21ZM288.08,393.11l-4.7,11.51h9.37l-4.67-11.51Z"/>
      <path class="cls-2" d="M316.57,391.07h-10.48v-5.85h28.35v5.85h-10.89v27.03h-6.98v-27.03Z"/>
      <path class="cls-2" d="M342,418.09v-32.88h6.99v32.88h-6.99Z"/>
      <path class="cls-2" d="M391.65,385.21l-14.38,32.88h-7.01l-13.87-32.88h7.88l9.68,24.74,9.83-24.74h7.88Z"/>
      <path class="cls-2" d="M423.73,385.21v5.85h-9.13c-2.39,0-4.13.16-5.22.49-1.08.33-1.99.97-2.71,1.91-.48.64-.81,1.29-.99,1.95-.18.66-.33,1.78-.46,3.37h18.5v5.85h-18.5c.24,2.84,1.07,4.82,2.48,5.93,1.41,1.11,3.81,1.66,7.2,1.66h8.82v5.85h-9.13c-2.47,0-4.65-.15-6.53-.46-2.95-.48-5.31-1.77-7.06-3.88-2.49-3.02-3.73-7.11-3.73-12.28,0-5.73,1.76-10.19,5.28-13.37,1.2-1.08,2.49-1.83,3.85-2.25,1.36-.43,3.19-.64,5.49-.64h11.83Z"/>
      <path class="cls-2" d="M449.5,385.21h13.95c3.49,0,6.18.35,8.09,1.04,3.52,1.27,5.86,3.61,7.03,7.03.9,2.62,1.35,5.43,1.35,8.43s-.43,5.77-1.28,8.41c-.85,2.7-2.27,4.68-4.26,5.95-1.25.8-2.62,1.34-4.11,1.61-1.49.27-3.76.41-6.83.41h-13.95v-32.88ZM456.48,391.07v21.17h6.96c3.05,0,5.17-.68,6.36-2.05.72-.84,1.3-2.03,1.75-3.58.44-1.55.66-3.2.66-4.95,0-1.93-.26-3.7-.78-5.32-.52-1.62-1.22-2.83-2.08-3.61-1.25-1.11-3.22-1.66-5.9-1.66h-6.96Z"/>
      <path class="cls-2" d="M488.81,418.09v-32.88h6.99v32.88h-6.99Z"/>
      <path class="cls-2" d="M506.36,418.09v-5.85h15.01c2.41,0,4.01-.24,4.82-.72,1.16-.69,1.73-1.73,1.73-3.11,0-1.59-.67-2.75-2.02-3.49-.77-.42-2-.63-3.69-.63h-6.09c-3.73,0-6.41-.67-8.05-2.02-1.03-.85-1.83-1.92-2.41-3.22-.58-1.29-.87-2.67-.87-4.13,0-2.31.67-4.42,2.02-6.34,1.32-1.85,3.43-2.92,6.34-3.23.98-.1,2.44-.14,4.38-.14h16.31v5.85h-14.72c-2.2.02-3.66.11-4.38.29-1.48.37-2.22,1.49-2.22,3.35,0,1.57.62,2.63,1.86,3.18.83.37,2.22.55,4.14.55h5.28c2.7,0,4.71.23,6.05.7,2.33.79,3.93,2.17,4.79,4.14.71,1.59,1.06,3.29,1.06,5.11,0,1.99-.46,3.78-1.37,5.37-1.28,2.25-3.22,3.59-5.8,4.02-1.25.21-3.13.31-5.64.31h-16.52Z"/>
      <path class="cls-2" d="M551.69,406.6v11.49h-6.99v-32.88h16.4c2.99,0,5.13.21,6.43.63,2.15.72,3.85,2.22,5.11,4.5.93,1.69,1.4,3.54,1.4,5.56,0,1.67-.31,3.25-.92,4.75-.61,1.49-1.46,2.72-2.55,3.69-.96.85-2,1.44-3.11,1.77-1.11.33-2.62.49-4.53.49h-11.25ZM551.69,400.75h9.54c1.7,0,2.9-.27,3.59-.82,1.03-.82,1.54-2.24,1.54-4.26,0-2.22-.78-3.64-2.34-4.26-.56-.22-1.45-.34-2.65-.34h-9.68v9.68Z"/>
      <path class="cls-2" d="M582.09,385.21h6.99v18.45c.1,2.34.2,3.9.31,4.67.22,1.49.94,2.52,2.15,3.07,1.21.55,3.34.83,6.4.83h6.72v5.85h-7.44c-3.52.02-6.07-.18-7.66-.6-3.63-1.06-5.93-3.36-6.89-6.91-.37-1.36-.56-3.67-.58-6.91v-18.45Z"/>
      <path class="cls-2" d="M610.54,418.09l13.61-32.88h8.07l13.61,32.88h-8.21l-3.18-7.61h-12.5l-3.18,7.61h-8.21ZM628.19,393.11l-4.7,11.51h9.37l-4.67-11.51Z"/>
      <path class="cls-2" d="M657.51,403.67l-12.17-18.45h8.19l7.54,12.84,7.95-12.84h8.31l-12.84,18.74v14.14h-6.98v-14.43Z"/>
    </g>
  </g>
</svg>